Coordinates
version=1
nRows=19
nColumns=24
inDegrees=yes

Units are S.I. units (second, meters, Newtons, ...)
Angles are in degrees.

endheader
time	pelvis_tilt	pelvis_list	pelvis_rotation	pelvis_tx	pelvis_ty	pelvis_tz	hip_flexion_r	hip_adduction_r	hip_rotation_r	knee_angle_r	ankle_angle_r	subtalar_angle_r	mtp_angle_r	hip_flexion_l	hip_adduction_l	hip_rotation_l	knee_angle_l	ankle_angle_l	subtalar_angle_l	mtp_angle_l	lumbar_extension	lumbar_bending	lumbar_rotation
      1.65000000	      5.15006484	      7.09365714	     -8.05056923	     -0.80644505	      0.97383277	     -0.01828558	     -7.51586396	     -8.24769865	     -9.17245184	    -21.97276658	     17.62405348	      2.50978277	      1.67786696	     15.87802709	      7.12475819	    -22.33409732	      0.18497797	     -3.33713153	     12.74511100	     39.39112394	    -19.33811895	     -9.19473117	     14.63530395
      1.65500000	      5.29266576	      7.20800940	     -8.13497068	     -0.80059544	      0.97330773	     -0.01833090	     -7.94508126	     -8.46410928	     -9.17317417	    -22.12933770	     17.72631141	      2.50593149	      1.76073389	     15.85763901	      7.21984890	    -22.25738721	     -0.51218719	     -3.34471494	     11.87826436	     39.39812794	    -19.43285213	     -9.39495117	     14.56236338
      1.66000000	      5.46776806	      7.31539976	     -8.14026998	     -0.79460863	      0.97287846	     -0.01848132	     -8.46335911	     -8.67142783	     -9.31039909	    -22.23057936	     17.67871058	      2.51617256	      2.65246527	     15.78262139	      7.34095685	    -22.05961473	     -1.19976368	     -3.47045969	     10.89169088	     40.15083720	    -19.56579060	     -9.56812509	     14.38599073
      1.66500000	      5.55854007	      7.43172735	     -8.19899685	     -0.78873687	      0.97235894	     -0.01857526	     -8.81669699	     -8.88036421	     -9.30529701	    -22.42972569	     17.70737594	      2.46774608	      2.81063325	     15.81270823	      7.44110709	    -21.89288439	     -1.91433560	     -3.62458138	      9.88479594	     40.13813384	    -19.60450833	     -9.75838210	     14.28930524
      1.67000000	      5.69917277	      7.54678402	     -8.18310644	     -0.78273871	      0.97195327	     -0.01877929	     -9.26864647	     -9.08910273	     -9.42379761	    -22.58496502	     17.54169394	      2.42832822	      4.20327787	     15.76603742	      7.57979977	    -21.63425009	     -2.59196687	     -3.88984893	      8.79572856	     41.03007923	    -19.70179052	     -9.92957140	     14.08774806
      1.67500000	      5.76089679	      7.67052191	     -8.16453995	     -0.77680646	      0.97147734	     -0.01899680	     -9.58562070	     -9.29629674	     -9.49617639	    -22.83119492	     17.50418308	      2.38843786	      4.59593227	     15.80812554	      7.71395442	    -21.33662616	     -3.27471795	     -4.15916737	      7.76066316	     41.13066133	    -19.71710629	    -10.10180744	     13.88866461
      1.68000000	      5.87566813	      7.79912098	     -8.19060137	     -0.77085073	      0.97115173	     -0.01917981	     -9.93181496	     -9.52255031	     -9.50177525	    -23.09456764	     17.22230382	      2.24657713	      6.03470013	     15.76611083	      7.86484562	    -21.11394670	     -3.88649014	     -4.55568101	      6.70818961	     41.93417199	    -19.78284536	    -10.29679584	     13.75249914
      1.68500000	      5.93251610	      7.93189364	     -8.19429122	     -0.76493712	      0.97080585	     -0.01941488	    -10.17595865	     -9.74603149	     -9.49866042	    -23.43868568	     17.10299600	      2.16972418	      6.25469938	     15.79025414	      8.01732807	    -20.84896279	     -4.50952745	     -4.90765216	      5.72295292	     41.92109576	    -19.79172766	    -10.48381355	     13.61555727
      1.69000000	      5.95659375	      8.09227127	     -8.10403065	     -0.75898488	      0.97046000	     -0.01978120	    -10.37481095	     -9.98620967	     -9.59263350	    -23.83664192	     16.80852744	      2.03888441	      7.67463672	     15.84462986	      8.21758985	    -20.47112539	     -5.11463466	     -5.35032055	      4.76107915	     42.63812126	    -19.78085683	    -10.66656643	     13.27938266
      1.69500000	      6.02363224	      8.21793194	     -8.13166805	     -0.75313027	      0.97026560	     -0.02006266	    -10.53562001	    -10.21452706	     -9.47585674	    -24.32160470	     16.51556666	      1.90214058	      8.24011261	     15.84142814	      8.37168012	    -20.16796873	     -5.70104392	     -5.68735955	      3.77284818	     42.79039752	    -19.80637337	    -10.84766757	     13.22261691
      1.70000000	      6.02533574	      8.36564179	     -8.12180347	     -0.74727825	      0.97005252	     -0.02032818	    -10.58351948	    -10.44338733	     -9.35109319	    -24.87064861	     15.95493127	      1.52005598	     10.46710697	     15.90730975	      8.53524105	    -19.94424841	     -6.27683659	     -6.15613416	      2.94772211	     43.68735337	    -19.76804327	    -11.04248195	     13.05287832
      1.70500000	      6.03626806	      8.52293299	     -8.04942598	     -0.74142349	      0.96990348	     -0.02075021	    -10.60751120	    -10.69157108	     -9.29903447	    -25.52189177	     15.60309281	      1.35269625	     11.16444146	     15.97123015	      8.73374452	    -19.54796711	     -6.89002449	     -6.47378829	      2.10588825	     43.75474712	    -19.75431509	    -11.22205852	     12.80208946
      1.71000000	      6.02636944	      8.66986780	     -8.01469523	     -0.73559381	      0.96983234	     -0.02113286	    -10.54292849	    -10.93182004	     -9.15570517	    -26.23593779	     14.91548412	      0.98698357	     13.02117650	     16.05589303	      8.90631794	    -19.26929952	     -7.50360663	     -6.82795109	      1.30520087	     44.11682842	    -19.71396836	    -11.39842255	     12.64265708
      1.71500000	      6.08869815	      8.79518534	     -8.00220960	     -0.72982686	      0.96989862	     -0.02153383	    -10.48812737	    -11.16541451	     -8.94238184	    -27.06504312	     14.40468720	      0.71469866	     13.54680694	     16.06916108	      9.06928565	    -18.88802481	     -8.14612900	     -7.00270318	      0.47771275	     44.09015176	    -19.75947288	    -11.56230046	     12.55917757
      1.72000000	      5.94973393	      8.95196714	     -7.93482907	     -0.72411152	      0.96973594	     -0.02194634	    -10.12561053	    -11.39979430	     -8.71204592	    -28.03331941	     13.60421377	      0.24419176	     15.86717202	     16.33901226	      9.21889101	    -18.57976470	     -8.87274706	     -7.16746826	     -0.17042653	     44.19141075	    -19.59492017	    -11.73021487	     12.32771727
      1.72500000	      5.97711849	      9.10003562	     -7.88493468	     -0.71835487	      0.96986183	     -0.02241370	     -9.90968093	    -11.65726941	     -8.48196843	    -29.04994852	     12.81419414	     -0.17470849	     17.43870528	     16.41508939	      9.40545109	    -18.17087859	     -9.58336620	     -7.24017918	     -0.95318327	     44.01428400	    -19.61208058	    -11.90023542	     12.16080639
      1.73000000	      6.00329829	      9.21493407	     -7.88964393	     -0.71268095	      0.97002861	     -0.02279282	     -9.59879198	    -11.88075824	     -8.12972180	    -30.16956308	     11.86253538	     -0.74656899	     19.41095721	     16.50827928	      9.53341269	    -17.83852674	    -10.34275219	     -7.15170487	     -1.54968509	     43.67928093	    -19.62516210	    -12.05323990	     12.14549336
      1.73500000	      5.98793499	      9.32732804	     -7.81418561	     -0.70701330	      0.97017137	     -0.02336240	     -9.19799613	    -12.10686725	     -7.86721846	    -31.39712229	     11.02832895	     -1.05058177	     20.02917264	     16.66836694	      9.68730700	    -17.35705032	    -11.15337432	     -7.06830883	     -2.39979798	     43.41836553	    -19.61139819	    -12.16415866	     12.00754335
      1.74000000	      5.96463395	      9.47150436	     -7.82118016	     -0.70137277	      0.97031209	     -0.02373594	     -8.67786490	    -12.36190244	     -7.45431322	    -32.71975520	      9.84639383	     -1.72834048	     22.70880441	     16.83853890	      9.83580833	    -17.03632069	    -11.97223235	     -6.81329693	     -2.85631866	     42.53693616	    -19.56966718	    -12.34234370	     11.92816899
